<mxfile host="app.diagrams.net" modified="2024-01-30T06:24:39.552Z" agent="Mozilla/5.0 (Macintosh; Intel Mac OS X 10_15_7) AppleWebKit/605.1.15 (KHTML, like Gecko) Version/17.2.1 Safari/605.1.15" etag="RVW2SYZkN0KENGZY-1t5" version="23.0.2" type="device">
  <diagram name="Page-1" id="0PHCMKjpyud3KAjEsfLB">
    <mxGraphModel dx="1188" dy="732" grid="1" gridSize="10" guides="1" tooltips="1" connect="1" arrows="1" fold="1" page="0" pageScale="1" pageWidth="827" pageHeight="1169" math="0" shadow="0">
      <root>
        <mxCell id="0" />
        <mxCell id="1" parent="0" />
        <mxCell id="bgvol3_OqY5FeR9LOVzj-3" value="" style="rounded=1;whiteSpace=wrap;html=1;strokeWidth=2;fillWeight=4;hachureGap=8;hachureAngle=45;fillColor=#1ba1e2;sketch=1;" vertex="1" parent="1">
          <mxGeometry x="360" y="250" width="170" height="60" as="geometry" />
        </mxCell>
        <mxCell id="bgvol3_OqY5FeR9LOVzj-2" value="" style="rounded=1;whiteSpace=wrap;html=1;strokeWidth=2;fillWeight=4;hachureGap=8;hachureAngle=45;fillColor=#1ba1e2;sketch=1;" vertex="1" parent="1">
          <mxGeometry x="341" y="131" width="120" height="60" as="geometry" />
        </mxCell>
        <mxCell id="bgvol3_OqY5FeR9LOVzj-1" value="" style="rounded=1;whiteSpace=wrap;html=1;strokeWidth=2;fillWeight=4;hachureGap=8;hachureAngle=45;fillColor=#1ba1e2;sketch=1;" vertex="1" parent="1">
          <mxGeometry x="341" y="30" width="120" height="60" as="geometry" />
        </mxCell>
        <mxCell id="qExTj2zVySwOXJWGo6M_-68" value="" style="rounded=0;whiteSpace=wrap;html=1;fillColor=#f5f5f5;fontColor=#333333;strokeColor=#666666;gradientColor=none;" parent="1" vertex="1">
          <mxGeometry x="45.5" y="500" width="750" height="110" as="geometry" />
        </mxCell>
        <mxCell id="qExTj2zVySwOXJWGo6M_-69" value="" style="rounded=0;whiteSpace=wrap;html=1;" parent="1" vertex="1">
          <mxGeometry x="66.5" y="525" width="120" height="60" as="geometry" />
        </mxCell>
        <mxCell id="qExTj2zVySwOXJWGo6M_-70" value="" style="endArrow=none;html=1;rounded=0;entryX=0.25;entryY=0;entryDx=0;entryDy=0;exitX=0.25;exitY=1;exitDx=0;exitDy=0;" parent="1" source="qExTj2zVySwOXJWGo6M_-69" target="qExTj2zVySwOXJWGo6M_-69" edge="1">
          <mxGeometry width="50" height="50" relative="1" as="geometry">
            <mxPoint x="326.5" y="555" as="sourcePoint" />
            <mxPoint x="376.5" y="505" as="targetPoint" />
          </mxGeometry>
        </mxCell>
        <mxCell id="qExTj2zVySwOXJWGo6M_-71" value="" style="endArrow=none;html=1;rounded=0;entryX=0.5;entryY=0;entryDx=0;entryDy=0;exitX=0.5;exitY=1;exitDx=0;exitDy=0;" parent="1" source="qExTj2zVySwOXJWGo6M_-69" target="qExTj2zVySwOXJWGo6M_-69" edge="1">
          <mxGeometry width="50" height="50" relative="1" as="geometry">
            <mxPoint x="106.5" y="595" as="sourcePoint" />
            <mxPoint x="106.5" y="535" as="targetPoint" />
            <Array as="points">
              <mxPoint x="126.5" y="555" />
            </Array>
          </mxGeometry>
        </mxCell>
        <mxCell id="qExTj2zVySwOXJWGo6M_-72" value="" style="endArrow=none;html=1;rounded=0;entryX=0.75;entryY=0;entryDx=0;entryDy=0;exitX=0.75;exitY=1;exitDx=0;exitDy=0;" parent="1" source="qExTj2zVySwOXJWGo6M_-69" target="qExTj2zVySwOXJWGo6M_-69" edge="1">
          <mxGeometry width="50" height="50" relative="1" as="geometry">
            <mxPoint x="326.5" y="555" as="sourcePoint" />
            <mxPoint x="376.5" y="505" as="targetPoint" />
          </mxGeometry>
        </mxCell>
        <mxCell id="qExTj2zVySwOXJWGo6M_-73" value="20" style="text;strokeColor=none;fillColor=none;align=left;verticalAlign=middle;spacingLeft=4;spacingRight=4;overflow=hidden;points=[[0,0.5],[1,0.5]];portConstraint=eastwest;rotatable=0;whiteSpace=wrap;html=1;fontSize=17;" parent="1" vertex="1">
          <mxGeometry x="66.5" y="530" width="30" height="50" as="geometry" />
        </mxCell>
        <mxCell id="qExTj2zVySwOXJWGo6M_-74" value="15" style="text;strokeColor=none;fillColor=none;align=left;verticalAlign=middle;spacingLeft=4;spacingRight=4;overflow=hidden;points=[[0,0.5],[1,0.5]];portConstraint=eastwest;rotatable=0;whiteSpace=wrap;html=1;fontSize=17;" parent="1" vertex="1">
          <mxGeometry x="96.5" y="530" width="30" height="50" as="geometry" />
        </mxCell>
        <mxCell id="qExTj2zVySwOXJWGo6M_-75" value="&lt;font style=&quot;font-size: 17px;&quot;&gt;16&lt;/font&gt;" style="text;strokeColor=none;fillColor=none;align=left;verticalAlign=middle;spacingLeft=4;spacingRight=4;overflow=hidden;points=[[0,0.5],[1,0.5]];portConstraint=eastwest;rotatable=0;whiteSpace=wrap;html=1;" parent="1" vertex="1">
          <mxGeometry x="126.5" y="530" width="30" height="50" as="geometry" />
        </mxCell>
        <mxCell id="qExTj2zVySwOXJWGo6M_-76" value="&amp;nbsp;1" style="text;strokeColor=none;fillColor=none;align=left;verticalAlign=middle;spacingLeft=4;spacingRight=4;overflow=hidden;points=[[0,0.5],[1,0.5]];portConstraint=eastwest;rotatable=0;whiteSpace=wrap;html=1;fontSize=17;" parent="1" vertex="1">
          <mxGeometry x="156.5" y="530" width="30" height="50" as="geometry" />
        </mxCell>
        <mxCell id="qExTj2zVySwOXJWGo6M_-77" value="" style="rounded=0;whiteSpace=wrap;html=1;" parent="1" vertex="1">
          <mxGeometry x="206.5" y="525" width="120" height="60" as="geometry" />
        </mxCell>
        <mxCell id="qExTj2zVySwOXJWGo6M_-78" value="" style="endArrow=none;html=1;rounded=0;entryX=0.25;entryY=0;entryDx=0;entryDy=0;exitX=0.25;exitY=1;exitDx=0;exitDy=0;" parent="1" source="qExTj2zVySwOXJWGo6M_-77" target="qExTj2zVySwOXJWGo6M_-77" edge="1">
          <mxGeometry width="50" height="50" relative="1" as="geometry">
            <mxPoint x="466.5" y="555" as="sourcePoint" />
            <mxPoint x="516.5" y="505" as="targetPoint" />
          </mxGeometry>
        </mxCell>
        <mxCell id="qExTj2zVySwOXJWGo6M_-79" value="" style="endArrow=none;html=1;rounded=0;entryX=0.5;entryY=0;entryDx=0;entryDy=0;exitX=0.5;exitY=1;exitDx=0;exitDy=0;" parent="1" source="qExTj2zVySwOXJWGo6M_-77" target="qExTj2zVySwOXJWGo6M_-77" edge="1">
          <mxGeometry width="50" height="50" relative="1" as="geometry">
            <mxPoint x="246.5" y="595" as="sourcePoint" />
            <mxPoint x="246.5" y="535" as="targetPoint" />
            <Array as="points">
              <mxPoint x="266.5" y="555" />
            </Array>
          </mxGeometry>
        </mxCell>
        <mxCell id="qExTj2zVySwOXJWGo6M_-80" value="" style="endArrow=none;html=1;rounded=0;entryX=0.75;entryY=0;entryDx=0;entryDy=0;exitX=0.75;exitY=1;exitDx=0;exitDy=0;" parent="1" source="qExTj2zVySwOXJWGo6M_-77" target="qExTj2zVySwOXJWGo6M_-77" edge="1">
          <mxGeometry width="50" height="50" relative="1" as="geometry">
            <mxPoint x="466.5" y="555" as="sourcePoint" />
            <mxPoint x="516.5" y="505" as="targetPoint" />
          </mxGeometry>
        </mxCell>
        <mxCell id="qExTj2zVySwOXJWGo6M_-81" value="&amp;nbsp;2" style="text;strokeColor=none;fillColor=none;align=left;verticalAlign=middle;spacingLeft=4;spacingRight=4;overflow=hidden;points=[[0,0.5],[1,0.5]];portConstraint=eastwest;rotatable=0;whiteSpace=wrap;html=1;fontSize=17;" parent="1" vertex="1">
          <mxGeometry x="206.5" y="530" width="30" height="50" as="geometry" />
        </mxCell>
        <mxCell id="qExTj2zVySwOXJWGo6M_-82" value="&amp;nbsp;8" style="text;strokeColor=none;fillColor=none;align=left;verticalAlign=middle;spacingLeft=4;spacingRight=4;overflow=hidden;points=[[0,0.5],[1,0.5]];portConstraint=eastwest;rotatable=0;whiteSpace=wrap;html=1;fontSize=17;" parent="1" vertex="1">
          <mxGeometry x="236.5" y="530" width="30" height="50" as="geometry" />
        </mxCell>
        <mxCell id="qExTj2zVySwOXJWGo6M_-83" value="&lt;font style=&quot;font-size: 17px;&quot;&gt;14&lt;/font&gt;" style="text;strokeColor=none;fillColor=none;align=left;verticalAlign=middle;spacingLeft=4;spacingRight=4;overflow=hidden;points=[[0,0.5],[1,0.5]];portConstraint=eastwest;rotatable=0;whiteSpace=wrap;html=1;" parent="1" vertex="1">
          <mxGeometry x="266.5" y="530" width="30" height="50" as="geometry" />
        </mxCell>
        <mxCell id="qExTj2zVySwOXJWGo6M_-84" value="11" style="text;align=left;verticalAlign=middle;spacingLeft=4;spacingRight=4;overflow=hidden;points=[[0,0.5],[1,0.5]];portConstraint=eastwest;rotatable=0;whiteSpace=wrap;html=1;fontSize=17;" parent="1" vertex="1">
          <mxGeometry x="296.5" y="530" width="30" height="50" as="geometry" />
        </mxCell>
        <mxCell id="qExTj2zVySwOXJWGo6M_-85" value="" style="rounded=0;whiteSpace=wrap;html=1;" parent="1" vertex="1">
          <mxGeometry x="346.5" y="525" width="120" height="60" as="geometry" />
        </mxCell>
        <mxCell id="qExTj2zVySwOXJWGo6M_-86" value="" style="endArrow=none;html=1;rounded=0;entryX=0.25;entryY=0;entryDx=0;entryDy=0;exitX=0.25;exitY=1;exitDx=0;exitDy=0;" parent="1" source="qExTj2zVySwOXJWGo6M_-85" target="qExTj2zVySwOXJWGo6M_-85" edge="1">
          <mxGeometry width="50" height="50" relative="1" as="geometry">
            <mxPoint x="606.5" y="555" as="sourcePoint" />
            <mxPoint x="656.5" y="505" as="targetPoint" />
          </mxGeometry>
        </mxCell>
        <mxCell id="qExTj2zVySwOXJWGo6M_-87" value="" style="endArrow=none;html=1;rounded=0;entryX=0.5;entryY=0;entryDx=0;entryDy=0;exitX=0.5;exitY=1;exitDx=0;exitDy=0;" parent="1" source="qExTj2zVySwOXJWGo6M_-85" target="qExTj2zVySwOXJWGo6M_-85" edge="1">
          <mxGeometry width="50" height="50" relative="1" as="geometry">
            <mxPoint x="386.5" y="595" as="sourcePoint" />
            <mxPoint x="386.5" y="535" as="targetPoint" />
            <Array as="points">
              <mxPoint x="406.5" y="555" />
            </Array>
          </mxGeometry>
        </mxCell>
        <mxCell id="qExTj2zVySwOXJWGo6M_-88" value="" style="endArrow=none;html=1;rounded=0;entryX=0.75;entryY=0;entryDx=0;entryDy=0;exitX=0.75;exitY=1;exitDx=0;exitDy=0;" parent="1" source="qExTj2zVySwOXJWGo6M_-85" target="qExTj2zVySwOXJWGo6M_-85" edge="1">
          <mxGeometry width="50" height="50" relative="1" as="geometry">
            <mxPoint x="606.5" y="555" as="sourcePoint" />
            <mxPoint x="656.5" y="505" as="targetPoint" />
          </mxGeometry>
        </mxCell>
        <mxCell id="qExTj2zVySwOXJWGo6M_-89" value="&amp;nbsp;7" style="text;strokeColor=none;fillColor=none;align=left;verticalAlign=middle;spacingLeft=4;spacingRight=4;overflow=hidden;points=[[0,0.5],[1,0.5]];portConstraint=eastwest;rotatable=0;whiteSpace=wrap;html=1;fontSize=17;" parent="1" vertex="1">
          <mxGeometry x="346.5" y="530" width="30" height="50" as="geometry" />
        </mxCell>
        <mxCell id="qExTj2zVySwOXJWGo6M_-90" value="&amp;nbsp;5" style="text;strokeColor=none;fillColor=none;align=left;verticalAlign=middle;spacingLeft=4;spacingRight=4;overflow=hidden;points=[[0,0.5],[1,0.5]];portConstraint=eastwest;rotatable=0;whiteSpace=wrap;html=1;fontSize=17;" parent="1" vertex="1">
          <mxGeometry x="376.5" y="530" width="30" height="50" as="geometry" />
        </mxCell>
        <mxCell id="qExTj2zVySwOXJWGo6M_-91" value="&lt;font style=&quot;font-size: 17px;&quot;&gt;13&lt;/font&gt;" style="text;strokeColor=none;fillColor=none;align=left;verticalAlign=middle;spacingLeft=4;spacingRight=4;overflow=hidden;points=[[0,0.5],[1,0.5]];portConstraint=eastwest;rotatable=0;whiteSpace=wrap;html=1;" parent="1" vertex="1">
          <mxGeometry x="406.5" y="530" width="30" height="50" as="geometry" />
        </mxCell>
        <mxCell id="qExTj2zVySwOXJWGo6M_-92" value="&amp;nbsp;6" style="text;strokeColor=none;fillColor=none;align=left;verticalAlign=middle;spacingLeft=4;spacingRight=4;overflow=hidden;points=[[0,0.5],[1,0.5]];portConstraint=eastwest;rotatable=0;whiteSpace=wrap;html=1;fontSize=17;" parent="1" vertex="1">
          <mxGeometry x="436.5" y="530" width="30" height="50" as="geometry" />
        </mxCell>
        <mxCell id="qExTj2zVySwOXJWGo6M_-93" value="" style="rounded=0;whiteSpace=wrap;html=1;" parent="1" vertex="1">
          <mxGeometry x="486.5" y="525" width="120" height="60" as="geometry" />
        </mxCell>
        <mxCell id="qExTj2zVySwOXJWGo6M_-94" value="" style="endArrow=none;html=1;rounded=0;entryX=0.25;entryY=0;entryDx=0;entryDy=0;exitX=0.25;exitY=1;exitDx=0;exitDy=0;" parent="1" source="qExTj2zVySwOXJWGo6M_-93" target="qExTj2zVySwOXJWGo6M_-93" edge="1">
          <mxGeometry width="50" height="50" relative="1" as="geometry">
            <mxPoint x="746.5" y="555" as="sourcePoint" />
            <mxPoint x="796.5" y="505" as="targetPoint" />
          </mxGeometry>
        </mxCell>
        <mxCell id="qExTj2zVySwOXJWGo6M_-95" value="" style="endArrow=none;html=1;rounded=0;entryX=0.5;entryY=0;entryDx=0;entryDy=0;exitX=0.5;exitY=1;exitDx=0;exitDy=0;" parent="1" source="qExTj2zVySwOXJWGo6M_-93" target="qExTj2zVySwOXJWGo6M_-93" edge="1">
          <mxGeometry width="50" height="50" relative="1" as="geometry">
            <mxPoint x="526.5" y="595" as="sourcePoint" />
            <mxPoint x="526.5" y="535" as="targetPoint" />
            <Array as="points">
              <mxPoint x="546.5" y="555" />
            </Array>
          </mxGeometry>
        </mxCell>
        <mxCell id="qExTj2zVySwOXJWGo6M_-96" value="" style="endArrow=none;html=1;rounded=0;entryX=0.75;entryY=0;entryDx=0;entryDy=0;exitX=0.75;exitY=1;exitDx=0;exitDy=0;" parent="1" source="qExTj2zVySwOXJWGo6M_-93" target="qExTj2zVySwOXJWGo6M_-93" edge="1">
          <mxGeometry width="50" height="50" relative="1" as="geometry">
            <mxPoint x="746.5" y="555" as="sourcePoint" />
            <mxPoint x="796.5" y="505" as="targetPoint" />
          </mxGeometry>
        </mxCell>
        <mxCell id="qExTj2zVySwOXJWGo6M_-97" value="&amp;nbsp;3" style="text;strokeColor=none;fillColor=none;align=left;verticalAlign=middle;spacingLeft=4;spacingRight=4;overflow=hidden;points=[[0,0.5],[1,0.5]];portConstraint=eastwest;rotatable=0;whiteSpace=wrap;html=1;fontSize=17;" parent="1" vertex="1">
          <mxGeometry x="486.5" y="530" width="30" height="50" as="geometry" />
        </mxCell>
        <mxCell id="qExTj2zVySwOXJWGo6M_-98" value="19" style="text;strokeColor=none;fillColor=none;align=left;verticalAlign=middle;spacingLeft=4;spacingRight=4;overflow=hidden;points=[[0,0.5],[1,0.5]];portConstraint=eastwest;rotatable=0;whiteSpace=wrap;html=1;fontSize=17;" parent="1" vertex="1">
          <mxGeometry x="516.5" y="530" width="30" height="50" as="geometry" />
        </mxCell>
        <mxCell id="qExTj2zVySwOXJWGo6M_-99" value="&lt;font style=&quot;font-size: 17px;&quot;&gt;&amp;nbsp;4&lt;/font&gt;" style="text;strokeColor=none;fillColor=none;align=left;verticalAlign=middle;spacingLeft=4;spacingRight=4;overflow=hidden;points=[[0,0.5],[1,0.5]];portConstraint=eastwest;rotatable=0;whiteSpace=wrap;html=1;" parent="1" vertex="1">
          <mxGeometry x="546.5" y="530" width="30" height="50" as="geometry" />
        </mxCell>
        <mxCell id="qExTj2zVySwOXJWGo6M_-100" value="&amp;nbsp;9" style="text;align=left;verticalAlign=middle;spacingLeft=4;spacingRight=4;overflow=hidden;points=[[0,0.5],[1,0.5]];portConstraint=eastwest;rotatable=0;whiteSpace=wrap;html=1;fontSize=17;" parent="1" vertex="1">
          <mxGeometry x="576.5" y="530" width="30" height="50" as="geometry" />
        </mxCell>
        <mxCell id="qExTj2zVySwOXJWGo6M_-101" value="" style="rounded=0;whiteSpace=wrap;html=1;" parent="1" vertex="1">
          <mxGeometry x="636.5" y="525" width="120" height="60" as="geometry" />
        </mxCell>
        <mxCell id="qExTj2zVySwOXJWGo6M_-102" value="" style="endArrow=none;html=1;rounded=0;entryX=0.25;entryY=0;entryDx=0;entryDy=0;exitX=0.25;exitY=1;exitDx=0;exitDy=0;" parent="1" source="qExTj2zVySwOXJWGo6M_-101" target="qExTj2zVySwOXJWGo6M_-101" edge="1">
          <mxGeometry width="50" height="50" relative="1" as="geometry">
            <mxPoint x="896.5" y="555" as="sourcePoint" />
            <mxPoint x="946.5" y="505" as="targetPoint" />
          </mxGeometry>
        </mxCell>
        <mxCell id="qExTj2zVySwOXJWGo6M_-103" value="" style="endArrow=none;html=1;rounded=0;entryX=0.5;entryY=0;entryDx=0;entryDy=0;exitX=0.5;exitY=1;exitDx=0;exitDy=0;" parent="1" source="qExTj2zVySwOXJWGo6M_-101" target="qExTj2zVySwOXJWGo6M_-101" edge="1">
          <mxGeometry width="50" height="50" relative="1" as="geometry">
            <mxPoint x="676.5" y="595" as="sourcePoint" />
            <mxPoint x="676.5" y="535" as="targetPoint" />
            <Array as="points">
              <mxPoint x="696.5" y="555" />
            </Array>
          </mxGeometry>
        </mxCell>
        <mxCell id="qExTj2zVySwOXJWGo6M_-104" value="" style="endArrow=none;html=1;rounded=0;entryX=0.75;entryY=0;entryDx=0;entryDy=0;exitX=0.75;exitY=1;exitDx=0;exitDy=0;" parent="1" source="qExTj2zVySwOXJWGo6M_-101" target="qExTj2zVySwOXJWGo6M_-101" edge="1">
          <mxGeometry width="50" height="50" relative="1" as="geometry">
            <mxPoint x="896.5" y="555" as="sourcePoint" />
            <mxPoint x="946.5" y="505" as="targetPoint" />
          </mxGeometry>
        </mxCell>
        <mxCell id="qExTj2zVySwOXJWGo6M_-105" value="10" style="text;align=left;verticalAlign=middle;spacingLeft=4;spacingRight=4;overflow=hidden;points=[[0,0.5],[1,0.5]];portConstraint=eastwest;rotatable=0;whiteSpace=wrap;html=1;fontSize=17;" parent="1" vertex="1">
          <mxGeometry x="636.5" y="530" width="30" height="50" as="geometry" />
        </mxCell>
        <mxCell id="qExTj2zVySwOXJWGo6M_-106" value="12" style="text;align=left;verticalAlign=middle;spacingLeft=4;spacingRight=4;overflow=hidden;points=[[0,0.5],[1,0.5]];portConstraint=eastwest;rotatable=0;whiteSpace=wrap;html=1;fontSize=17;" parent="1" vertex="1">
          <mxGeometry x="666.5" y="530" width="30" height="50" as="geometry" />
        </mxCell>
        <mxCell id="qExTj2zVySwOXJWGo6M_-107" value="&lt;font style=&quot;font-size: 17px;&quot;&gt;17&lt;/font&gt;" style="text;strokeColor=none;fillColor=none;align=left;verticalAlign=middle;spacingLeft=4;spacingRight=4;overflow=hidden;points=[[0,0.5],[1,0.5]];portConstraint=eastwest;rotatable=0;whiteSpace=wrap;html=1;" parent="1" vertex="1">
          <mxGeometry x="696.5" y="530" width="30" height="50" as="geometry" />
        </mxCell>
        <mxCell id="qExTj2zVySwOXJWGo6M_-108" value="18" style="text;strokeColor=none;fillColor=none;align=left;verticalAlign=middle;spacingLeft=4;spacingRight=4;overflow=hidden;points=[[0,0.5],[1,0.5]];portConstraint=eastwest;rotatable=0;whiteSpace=wrap;html=1;fontSize=17;" parent="1" vertex="1">
          <mxGeometry x="726.5" y="530" width="30" height="50" as="geometry" />
        </mxCell>
        <mxCell id="qExTj2zVySwOXJWGo6M_-195" value="" style="rounded=0;whiteSpace=wrap;html=1;strokeColor=default;align=center;verticalAlign=middle;fontFamily=Helvetica;fontSize=12;fontColor=default;fillColor=default;" parent="1" vertex="1">
          <mxGeometry x="361" y="40" width="80" height="40" as="geometry" />
        </mxCell>
        <mxCell id="qExTj2zVySwOXJWGo6M_-196" value="" style="endArrow=none;html=1;rounded=0;fontFamily=Helvetica;fontSize=12;fontColor=default;entryX=0.5;entryY=0;entryDx=0;entryDy=0;exitX=0.5;exitY=1;exitDx=0;exitDy=0;" parent="1" source="qExTj2zVySwOXJWGo6M_-195" target="qExTj2zVySwOXJWGo6M_-195" edge="1">
          <mxGeometry width="50" height="50" relative="1" as="geometry">
            <mxPoint x="261" y="290" as="sourcePoint" />
            <mxPoint x="311" y="240" as="targetPoint" />
          </mxGeometry>
        </mxCell>
        <mxCell id="qExTj2zVySwOXJWGo6M_-197" value="7" style="text;html=1;strokeColor=none;fillColor=none;align=center;verticalAlign=middle;whiteSpace=wrap;rounded=0;fontSize=14;fontFamily=Helvetica;fontColor=default;" parent="1" vertex="1">
          <mxGeometry x="361" y="45" width="39" height="30" as="geometry" />
        </mxCell>
        <mxCell id="qExTj2zVySwOXJWGo6M_-198" value="13" style="text;html=1;strokeColor=none;fillColor=none;align=center;verticalAlign=middle;whiteSpace=wrap;rounded=0;fontSize=14;fontFamily=Helvetica;fontColor=default;" parent="1" vertex="1">
          <mxGeometry x="402" y="45" width="39" height="30" as="geometry" />
        </mxCell>
        <mxCell id="qExTj2zVySwOXJWGo6M_-199" value="" style="rounded=0;whiteSpace=wrap;html=1;strokeColor=default;align=center;verticalAlign=middle;fontFamily=Helvetica;fontSize=12;fontColor=default;fillColor=default;" parent="1" vertex="1">
          <mxGeometry x="201.5" y="140" width="80" height="40" as="geometry" />
        </mxCell>
        <mxCell id="qExTj2zVySwOXJWGo6M_-200" value="" style="endArrow=none;html=1;rounded=0;fontFamily=Helvetica;fontSize=12;fontColor=default;entryX=0.5;entryY=0;entryDx=0;entryDy=0;exitX=0.5;exitY=1;exitDx=0;exitDy=0;" parent="1" source="qExTj2zVySwOXJWGo6M_-199" target="qExTj2zVySwOXJWGo6M_-199" edge="1">
          <mxGeometry width="50" height="50" relative="1" as="geometry">
            <mxPoint x="101.5" y="390" as="sourcePoint" />
            <mxPoint x="151.5" y="340" as="targetPoint" />
          </mxGeometry>
        </mxCell>
        <mxCell id="qExTj2zVySwOXJWGo6M_-201" value="3" style="text;html=1;strokeColor=none;fillColor=none;align=center;verticalAlign=middle;whiteSpace=wrap;rounded=0;fontSize=14;fontFamily=Helvetica;fontColor=default;" parent="1" vertex="1">
          <mxGeometry x="201.5" y="145" width="39" height="30" as="geometry" />
        </mxCell>
        <mxCell id="qExTj2zVySwOXJWGo6M_-202" value="5" style="text;html=1;strokeColor=none;fillColor=none;align=center;verticalAlign=middle;whiteSpace=wrap;rounded=0;fontSize=14;fontFamily=Helvetica;fontColor=default;" parent="1" vertex="1">
          <mxGeometry x="242.5" y="145" width="39" height="30" as="geometry" />
        </mxCell>
        <mxCell id="qExTj2zVySwOXJWGo6M_-203" value="" style="rounded=0;whiteSpace=wrap;html=1;strokeColor=default;align=center;verticalAlign=middle;fontFamily=Helvetica;fontSize=12;fontColor=default;fillColor=default;" parent="1" vertex="1">
          <mxGeometry x="360" y="140" width="80" height="40" as="geometry" />
        </mxCell>
        <mxCell id="qExTj2zVySwOXJWGo6M_-204" value="" style="endArrow=none;html=1;rounded=0;fontFamily=Helvetica;fontSize=12;fontColor=default;entryX=0.5;entryY=0;entryDx=0;entryDy=0;exitX=0.5;exitY=1;exitDx=0;exitDy=0;" parent="1" source="qExTj2zVySwOXJWGo6M_-203" target="qExTj2zVySwOXJWGo6M_-203" edge="1">
          <mxGeometry width="50" height="50" relative="1" as="geometry">
            <mxPoint x="260" y="390" as="sourcePoint" />
            <mxPoint x="310" y="340" as="targetPoint" />
          </mxGeometry>
        </mxCell>
        <mxCell id="qExTj2zVySwOXJWGo6M_-205" value="9" style="text;html=1;strokeColor=none;fillColor=none;align=center;verticalAlign=middle;whiteSpace=wrap;rounded=0;fontSize=14;fontFamily=Helvetica;fontColor=default;" parent="1" vertex="1">
          <mxGeometry x="360" y="145" width="39" height="30" as="geometry" />
        </mxCell>
        <mxCell id="qExTj2zVySwOXJWGo6M_-206" value="11" style="text;html=1;strokeColor=none;fillColor=none;align=center;verticalAlign=middle;whiteSpace=wrap;rounded=0;fontSize=14;fontFamily=Helvetica;fontColor=default;" parent="1" vertex="1">
          <mxGeometry x="398.5" y="145" width="41.5" height="30" as="geometry" />
        </mxCell>
        <mxCell id="qExTj2zVySwOXJWGo6M_-207" value="" style="rounded=0;whiteSpace=wrap;html=1;strokeColor=default;align=center;verticalAlign=middle;fontFamily=Helvetica;fontSize=12;fontColor=default;fillColor=default;" parent="1" vertex="1">
          <mxGeometry x="520.5" y="140.60000000000002" width="120" height="40" as="geometry" />
        </mxCell>
        <mxCell id="qExTj2zVySwOXJWGo6M_-208" value="" style="endArrow=none;html=1;rounded=0;fontFamily=Helvetica;fontSize=12;fontColor=default;exitX=0.336;exitY=0.997;exitDx=0;exitDy=0;exitPerimeter=0;entryX=0.334;entryY=-0.015;entryDx=0;entryDy=0;entryPerimeter=0;" parent="1" source="qExTj2zVySwOXJWGo6M_-207" target="qExTj2zVySwOXJWGo6M_-207" edge="1">
          <mxGeometry width="50" height="50" relative="1" as="geometry">
            <mxPoint x="570.5" y="140.60000000000002" as="sourcePoint" />
            <mxPoint x="559.5" y="140.60000000000002" as="targetPoint" />
            <Array as="points" />
          </mxGeometry>
        </mxCell>
        <mxCell id="qExTj2zVySwOXJWGo6M_-209" value="" style="endArrow=none;html=1;rounded=0;fontFamily=Helvetica;fontSize=12;fontColor=default;entryX=0.667;entryY=0;entryDx=0;entryDy=0;entryPerimeter=0;exitX=0.668;exitY=0.991;exitDx=0;exitDy=0;exitPerimeter=0;" parent="1" source="qExTj2zVySwOXJWGo6M_-207" target="qExTj2zVySwOXJWGo6M_-207" edge="1">
          <mxGeometry width="50" height="50" relative="1" as="geometry">
            <mxPoint x="430.5" y="350.6" as="sourcePoint" />
            <mxPoint x="480.5" y="300.6" as="targetPoint" />
          </mxGeometry>
        </mxCell>
        <mxCell id="qExTj2zVySwOXJWGo6M_-210" value="15" style="text;html=1;strokeColor=none;fillColor=none;align=center;verticalAlign=middle;whiteSpace=wrap;rounded=0;fontSize=14;fontFamily=Helvetica;fontColor=default;" parent="1" vertex="1">
          <mxGeometry x="520.5" y="145.6" width="39" height="30" as="geometry" />
        </mxCell>
        <mxCell id="qExTj2zVySwOXJWGo6M_-211" value="17" style="text;html=1;strokeColor=none;fillColor=none;align=center;verticalAlign=middle;whiteSpace=wrap;rounded=0;fontSize=14;fontFamily=Helvetica;fontColor=default;" parent="1" vertex="1">
          <mxGeometry x="561" y="145.6" width="39" height="30" as="geometry" />
        </mxCell>
        <mxCell id="qExTj2zVySwOXJWGo6M_-212" value="19" style="text;html=1;strokeColor=none;fillColor=none;align=center;verticalAlign=middle;whiteSpace=wrap;rounded=0;fontSize=14;fontFamily=Helvetica;fontColor=default;" parent="1" vertex="1">
          <mxGeometry x="601.5" y="145.6" width="39" height="30" as="geometry" />
        </mxCell>
        <mxCell id="qExTj2zVySwOXJWGo6M_-213" value="" style="rounded=0;whiteSpace=wrap;html=1;strokeColor=default;align=center;verticalAlign=middle;fontFamily=Helvetica;fontSize=12;fontColor=default;fillColor=default;" parent="1" vertex="1">
          <mxGeometry y="260" width="80" height="40" as="geometry" />
        </mxCell>
        <mxCell id="qExTj2zVySwOXJWGo6M_-214" value="" style="endArrow=none;html=1;rounded=0;fontFamily=Helvetica;fontSize=12;fontColor=default;entryX=0.5;entryY=0;entryDx=0;entryDy=0;exitX=0.5;exitY=1;exitDx=0;exitDy=0;" parent="1" source="qExTj2zVySwOXJWGo6M_-213" target="qExTj2zVySwOXJWGo6M_-213" edge="1">
          <mxGeometry width="50" height="50" relative="1" as="geometry">
            <mxPoint x="-100" y="510" as="sourcePoint" />
            <mxPoint x="-50" y="460" as="targetPoint" />
          </mxGeometry>
        </mxCell>
        <mxCell id="qExTj2zVySwOXJWGo6M_-215" value="1" style="text;html=1;strokeColor=none;fillColor=none;align=center;verticalAlign=middle;whiteSpace=wrap;rounded=0;fontSize=14;fontFamily=Helvetica;fontColor=default;" parent="1" vertex="1">
          <mxGeometry y="265" width="39" height="30" as="geometry" />
        </mxCell>
        <mxCell id="qExTj2zVySwOXJWGo6M_-216" value="2" style="text;html=1;strokeColor=none;fillColor=none;align=center;verticalAlign=middle;whiteSpace=wrap;rounded=0;fontSize=14;fontFamily=Helvetica;fontColor=default;" parent="1" vertex="1">
          <mxGeometry x="41" y="265" width="39" height="30" as="geometry" />
        </mxCell>
        <mxCell id="qExTj2zVySwOXJWGo6M_-217" value="" style="rounded=0;whiteSpace=wrap;html=1;strokeColor=default;align=center;verticalAlign=middle;fontFamily=Helvetica;fontSize=12;fontColor=default;fillColor=default;" parent="1" vertex="1">
          <mxGeometry x="89" y="260" width="80" height="40" as="geometry" />
        </mxCell>
        <mxCell id="qExTj2zVySwOXJWGo6M_-218" value="" style="endArrow=none;html=1;rounded=0;fontFamily=Helvetica;fontSize=12;fontColor=default;entryX=0.5;entryY=0;entryDx=0;entryDy=0;exitX=0.5;exitY=1;exitDx=0;exitDy=0;" parent="1" source="qExTj2zVySwOXJWGo6M_-217" target="qExTj2zVySwOXJWGo6M_-217" edge="1">
          <mxGeometry width="50" height="50" relative="1" as="geometry">
            <mxPoint x="-11" y="510" as="sourcePoint" />
            <mxPoint x="39" y="460" as="targetPoint" />
          </mxGeometry>
        </mxCell>
        <mxCell id="qExTj2zVySwOXJWGo6M_-219" value="3" style="text;html=1;strokeColor=none;fillColor=none;align=center;verticalAlign=middle;whiteSpace=wrap;rounded=0;fontSize=14;fontFamily=Helvetica;fontColor=default;" parent="1" vertex="1">
          <mxGeometry x="89" y="265" width="39" height="30" as="geometry" />
        </mxCell>
        <mxCell id="qExTj2zVySwOXJWGo6M_-220" value="4" style="text;html=1;strokeColor=none;fillColor=none;align=center;verticalAlign=middle;whiteSpace=wrap;rounded=0;fontSize=14;fontFamily=Helvetica;fontColor=default;" parent="1" vertex="1">
          <mxGeometry x="130" y="265" width="39" height="30" as="geometry" />
        </mxCell>
        <mxCell id="qExTj2zVySwOXJWGo6M_-221" value="" style="rounded=0;whiteSpace=wrap;html=1;strokeColor=default;align=center;verticalAlign=middle;fontFamily=Helvetica;fontSize=12;fontColor=default;fillColor=default;" parent="1" vertex="1">
          <mxGeometry x="180" y="260" width="80" height="40" as="geometry" />
        </mxCell>
        <mxCell id="qExTj2zVySwOXJWGo6M_-222" value="" style="endArrow=none;html=1;rounded=0;fontFamily=Helvetica;fontSize=12;fontColor=default;entryX=0.5;entryY=0;entryDx=0;entryDy=0;exitX=0.5;exitY=1;exitDx=0;exitDy=0;" parent="1" source="qExTj2zVySwOXJWGo6M_-221" target="qExTj2zVySwOXJWGo6M_-221" edge="1">
          <mxGeometry width="50" height="50" relative="1" as="geometry">
            <mxPoint x="80" y="510" as="sourcePoint" />
            <mxPoint x="130" y="460" as="targetPoint" />
          </mxGeometry>
        </mxCell>
        <mxCell id="qExTj2zVySwOXJWGo6M_-223" value="5" style="text;html=1;strokeColor=none;fillColor=none;align=center;verticalAlign=middle;whiteSpace=wrap;rounded=0;fontSize=14;fontFamily=Helvetica;fontColor=default;" parent="1" vertex="1">
          <mxGeometry x="180" y="265" width="39" height="30" as="geometry" />
        </mxCell>
        <mxCell id="qExTj2zVySwOXJWGo6M_-224" value="6" style="text;html=1;strokeColor=none;fillColor=none;align=center;verticalAlign=middle;whiteSpace=wrap;rounded=0;fontSize=14;fontFamily=Helvetica;fontColor=default;" parent="1" vertex="1">
          <mxGeometry x="221" y="265" width="39" height="30" as="geometry" />
        </mxCell>
        <mxCell id="qExTj2zVySwOXJWGo6M_-225" value="" style="rounded=0;whiteSpace=wrap;html=1;strokeColor=default;align=center;verticalAlign=middle;fontFamily=Helvetica;fontSize=12;fontColor=default;fillColor=default;" parent="1" vertex="1">
          <mxGeometry x="270" y="260" width="80" height="40" as="geometry" />
        </mxCell>
        <mxCell id="qExTj2zVySwOXJWGo6M_-226" value="" style="endArrow=none;html=1;rounded=0;fontFamily=Helvetica;fontSize=12;fontColor=default;entryX=0.5;entryY=0;entryDx=0;entryDy=0;exitX=0.5;exitY=1;exitDx=0;exitDy=0;" parent="1" source="qExTj2zVySwOXJWGo6M_-225" target="qExTj2zVySwOXJWGo6M_-225" edge="1">
          <mxGeometry width="50" height="50" relative="1" as="geometry">
            <mxPoint x="170" y="510" as="sourcePoint" />
            <mxPoint x="220" y="460" as="targetPoint" />
          </mxGeometry>
        </mxCell>
        <mxCell id="qExTj2zVySwOXJWGo6M_-227" value="7" style="text;html=1;strokeColor=none;fillColor=none;align=center;verticalAlign=middle;whiteSpace=wrap;rounded=0;fontSize=14;fontFamily=Helvetica;fontColor=default;" parent="1" vertex="1">
          <mxGeometry x="270" y="265" width="39" height="30" as="geometry" />
        </mxCell>
        <mxCell id="qExTj2zVySwOXJWGo6M_-228" value="8" style="text;html=1;strokeColor=none;fillColor=none;align=center;verticalAlign=middle;whiteSpace=wrap;rounded=0;fontSize=14;fontFamily=Helvetica;fontColor=default;" parent="1" vertex="1">
          <mxGeometry x="311" y="265" width="39" height="30" as="geometry" />
        </mxCell>
        <mxCell id="qExTj2zVySwOXJWGo6M_-229" value="" style="rounded=0;whiteSpace=wrap;html=1;strokeColor=default;align=center;verticalAlign=middle;fontFamily=Helvetica;fontSize=12;fontColor=default;fillColor=default;" parent="1" vertex="1">
          <mxGeometry x="360" y="260" width="80" height="40" as="geometry" />
        </mxCell>
        <mxCell id="qExTj2zVySwOXJWGo6M_-230" value="" style="endArrow=none;html=1;rounded=0;fontFamily=Helvetica;fontSize=12;fontColor=default;entryX=0.5;entryY=0;entryDx=0;entryDy=0;exitX=0.5;exitY=1;exitDx=0;exitDy=0;" parent="1" source="qExTj2zVySwOXJWGo6M_-229" target="qExTj2zVySwOXJWGo6M_-229" edge="1">
          <mxGeometry width="50" height="50" relative="1" as="geometry">
            <mxPoint x="260" y="510" as="sourcePoint" />
            <mxPoint x="310" y="460" as="targetPoint" />
          </mxGeometry>
        </mxCell>
        <mxCell id="qExTj2zVySwOXJWGo6M_-231" value="9" style="text;html=1;strokeColor=none;fillColor=none;align=center;verticalAlign=middle;whiteSpace=wrap;rounded=0;fontSize=14;fontFamily=Helvetica;fontColor=default;" parent="1" vertex="1">
          <mxGeometry x="360" y="265" width="39" height="30" as="geometry" />
        </mxCell>
        <mxCell id="qExTj2zVySwOXJWGo6M_-232" value="10" style="text;html=1;strokeColor=none;fillColor=none;align=center;verticalAlign=middle;whiteSpace=wrap;rounded=0;fontSize=14;fontFamily=Helvetica;fontColor=default;" parent="1" vertex="1">
          <mxGeometry x="401" y="265" width="39" height="30" as="geometry" />
        </mxCell>
        <mxCell id="qExTj2zVySwOXJWGo6M_-234" value="" style="rounded=0;whiteSpace=wrap;html=1;strokeColor=default;align=center;verticalAlign=middle;fontFamily=Helvetica;fontSize=12;fontColor=default;fillColor=default;" parent="1" vertex="1">
          <mxGeometry x="449" y="260" width="80" height="40" as="geometry" />
        </mxCell>
        <mxCell id="qExTj2zVySwOXJWGo6M_-235" value="" style="endArrow=none;html=1;rounded=0;fontFamily=Helvetica;fontSize=12;fontColor=default;entryX=0.5;entryY=0;entryDx=0;entryDy=0;exitX=0.5;exitY=1;exitDx=0;exitDy=0;" parent="1" source="qExTj2zVySwOXJWGo6M_-234" target="qExTj2zVySwOXJWGo6M_-234" edge="1">
          <mxGeometry width="50" height="50" relative="1" as="geometry">
            <mxPoint x="349" y="510" as="sourcePoint" />
            <mxPoint x="399" y="460" as="targetPoint" />
          </mxGeometry>
        </mxCell>
        <mxCell id="qExTj2zVySwOXJWGo6M_-236" value="11" style="text;html=1;strokeColor=none;fillColor=none;align=center;verticalAlign=middle;whiteSpace=wrap;rounded=0;fontSize=14;fontFamily=Helvetica;fontColor=default;" parent="1" vertex="1">
          <mxGeometry x="449" y="265" width="39" height="30" as="geometry" />
        </mxCell>
        <mxCell id="qExTj2zVySwOXJWGo6M_-237" value="12" style="text;html=1;strokeColor=none;fillColor=none;align=center;verticalAlign=middle;whiteSpace=wrap;rounded=0;fontSize=14;fontFamily=Helvetica;fontColor=default;" parent="1" vertex="1">
          <mxGeometry x="490" y="265" width="39" height="30" as="geometry" />
        </mxCell>
        <mxCell id="qExTj2zVySwOXJWGo6M_-239" value="" style="rounded=0;whiteSpace=wrap;html=1;strokeColor=default;align=center;verticalAlign=middle;fontFamily=Helvetica;fontSize=12;fontColor=default;fillColor=default;" parent="1" vertex="1">
          <mxGeometry x="539" y="260" width="80" height="40" as="geometry" />
        </mxCell>
        <mxCell id="qExTj2zVySwOXJWGo6M_-240" value="" style="endArrow=none;html=1;rounded=0;fontFamily=Helvetica;fontSize=12;fontColor=default;entryX=0.5;entryY=0;entryDx=0;entryDy=0;exitX=0.5;exitY=1;exitDx=0;exitDy=0;" parent="1" source="qExTj2zVySwOXJWGo6M_-239" target="qExTj2zVySwOXJWGo6M_-239" edge="1">
          <mxGeometry width="50" height="50" relative="1" as="geometry">
            <mxPoint x="439" y="510" as="sourcePoint" />
            <mxPoint x="489" y="460" as="targetPoint" />
          </mxGeometry>
        </mxCell>
        <mxCell id="qExTj2zVySwOXJWGo6M_-241" value="13" style="text;html=1;strokeColor=none;fillColor=none;align=center;verticalAlign=middle;whiteSpace=wrap;rounded=0;fontSize=14;fontFamily=Helvetica;fontColor=default;" parent="1" vertex="1">
          <mxGeometry x="539" y="265" width="39" height="30" as="geometry" />
        </mxCell>
        <mxCell id="qExTj2zVySwOXJWGo6M_-242" value="14" style="text;html=1;strokeColor=none;fillColor=none;align=center;verticalAlign=middle;whiteSpace=wrap;rounded=0;fontSize=14;fontFamily=Helvetica;fontColor=default;" parent="1" vertex="1">
          <mxGeometry x="580" y="265" width="39" height="30" as="geometry" />
        </mxCell>
        <mxCell id="qExTj2zVySwOXJWGo6M_-243" value="" style="rounded=0;whiteSpace=wrap;html=1;strokeColor=default;align=center;verticalAlign=middle;fontFamily=Helvetica;fontSize=12;fontColor=default;fillColor=default;" parent="1" vertex="1">
          <mxGeometry x="629" y="260" width="80" height="40" as="geometry" />
        </mxCell>
        <mxCell id="qExTj2zVySwOXJWGo6M_-244" value="" style="endArrow=none;html=1;rounded=0;fontFamily=Helvetica;fontSize=12;fontColor=default;entryX=0.5;entryY=0;entryDx=0;entryDy=0;exitX=0.5;exitY=1;exitDx=0;exitDy=0;" parent="1" source="qExTj2zVySwOXJWGo6M_-243" target="qExTj2zVySwOXJWGo6M_-243" edge="1">
          <mxGeometry width="50" height="50" relative="1" as="geometry">
            <mxPoint x="529" y="510" as="sourcePoint" />
            <mxPoint x="579" y="460" as="targetPoint" />
          </mxGeometry>
        </mxCell>
        <mxCell id="qExTj2zVySwOXJWGo6M_-245" value="15" style="text;html=1;strokeColor=none;fillColor=none;align=center;verticalAlign=middle;whiteSpace=wrap;rounded=0;fontSize=14;fontFamily=Helvetica;fontColor=default;" parent="1" vertex="1">
          <mxGeometry x="629" y="265" width="39" height="30" as="geometry" />
        </mxCell>
        <mxCell id="qExTj2zVySwOXJWGo6M_-246" value="16" style="text;html=1;strokeColor=none;fillColor=none;align=center;verticalAlign=middle;whiteSpace=wrap;rounded=0;fontSize=14;fontFamily=Helvetica;fontColor=default;" parent="1" vertex="1">
          <mxGeometry x="670" y="265" width="39" height="30" as="geometry" />
        </mxCell>
        <mxCell id="qExTj2zVySwOXJWGo6M_-247" value="" style="rounded=0;whiteSpace=wrap;html=1;strokeColor=default;align=center;verticalAlign=middle;fontFamily=Helvetica;fontSize=12;fontColor=default;fillColor=default;" parent="1" vertex="1">
          <mxGeometry x="719" y="260" width="80" height="40" as="geometry" />
        </mxCell>
        <mxCell id="qExTj2zVySwOXJWGo6M_-248" value="" style="endArrow=none;html=1;rounded=0;fontFamily=Helvetica;fontSize=12;fontColor=default;entryX=0.5;entryY=0;entryDx=0;entryDy=0;exitX=0.5;exitY=1;exitDx=0;exitDy=0;" parent="1" source="qExTj2zVySwOXJWGo6M_-247" target="qExTj2zVySwOXJWGo6M_-247" edge="1">
          <mxGeometry width="50" height="50" relative="1" as="geometry">
            <mxPoint x="619" y="510" as="sourcePoint" />
            <mxPoint x="669" y="460" as="targetPoint" />
          </mxGeometry>
        </mxCell>
        <mxCell id="qExTj2zVySwOXJWGo6M_-249" value="17" style="text;html=1;strokeColor=none;fillColor=none;align=center;verticalAlign=middle;whiteSpace=wrap;rounded=0;fontSize=14;fontFamily=Helvetica;fontColor=default;" parent="1" vertex="1">
          <mxGeometry x="719" y="265" width="39" height="30" as="geometry" />
        </mxCell>
        <mxCell id="qExTj2zVySwOXJWGo6M_-250" value="18" style="text;html=1;strokeColor=none;fillColor=none;align=center;verticalAlign=middle;whiteSpace=wrap;rounded=0;fontSize=14;fontFamily=Helvetica;fontColor=default;" parent="1" vertex="1">
          <mxGeometry x="760" y="265" width="39" height="30" as="geometry" />
        </mxCell>
        <mxCell id="qExTj2zVySwOXJWGo6M_-251" value="" style="endArrow=none;html=1;rounded=0;fontFamily=Helvetica;fontSize=12;fontColor=default;entryX=0;entryY=1;entryDx=0;entryDy=0;" parent="1" target="qExTj2zVySwOXJWGo6M_-199" edge="1">
          <mxGeometry width="50" height="50" relative="1" as="geometry">
            <mxPoint x="40" y="260" as="sourcePoint" />
            <mxPoint x="430" y="210" as="targetPoint" />
          </mxGeometry>
        </mxCell>
        <mxCell id="qExTj2zVySwOXJWGo6M_-252" value="" style="endArrow=none;html=1;rounded=0;fontFamily=Helvetica;fontSize=12;fontColor=default;entryX=0.5;entryY=1;entryDx=0;entryDy=0;exitX=0.5;exitY=0;exitDx=0;exitDy=0;" parent="1" source="qExTj2zVySwOXJWGo6M_-217" target="qExTj2zVySwOXJWGo6M_-199" edge="1">
          <mxGeometry width="50" height="50" relative="1" as="geometry">
            <mxPoint x="380" y="260" as="sourcePoint" />
            <mxPoint x="430" y="210" as="targetPoint" />
          </mxGeometry>
        </mxCell>
        <mxCell id="qExTj2zVySwOXJWGo6M_-253" value="" style="endArrow=none;html=1;rounded=0;fontFamily=Helvetica;fontSize=12;fontColor=default;entryX=1;entryY=1;entryDx=0;entryDy=0;exitX=0.5;exitY=0;exitDx=0;exitDy=0;" parent="1" source="qExTj2zVySwOXJWGo6M_-221" target="qExTj2zVySwOXJWGo6M_-199" edge="1">
          <mxGeometry width="50" height="50" relative="1" as="geometry">
            <mxPoint x="380" y="260" as="sourcePoint" />
            <mxPoint x="430" y="210" as="targetPoint" />
          </mxGeometry>
        </mxCell>
        <mxCell id="qExTj2zVySwOXJWGo6M_-254" value="" style="endArrow=none;html=1;rounded=0;fontFamily=Helvetica;fontSize=12;fontColor=default;entryX=0;entryY=1;entryDx=0;entryDy=0;exitX=0.5;exitY=0;exitDx=0;exitDy=0;" parent="1" source="qExTj2zVySwOXJWGo6M_-225" target="qExTj2zVySwOXJWGo6M_-203" edge="1">
          <mxGeometry width="50" height="50" relative="1" as="geometry">
            <mxPoint x="380" y="260" as="sourcePoint" />
            <mxPoint x="430" y="210" as="targetPoint" />
          </mxGeometry>
        </mxCell>
        <mxCell id="qExTj2zVySwOXJWGo6M_-255" value="" style="endArrow=none;html=1;rounded=0;fontFamily=Helvetica;fontSize=12;fontColor=default;" parent="1" edge="1">
          <mxGeometry width="50" height="50" relative="1" as="geometry">
            <mxPoint x="400" y="260" as="sourcePoint" />
            <mxPoint x="400" y="180" as="targetPoint" />
          </mxGeometry>
        </mxCell>
        <mxCell id="qExTj2zVySwOXJWGo6M_-256" value="" style="endArrow=none;html=1;rounded=0;fontFamily=Helvetica;fontSize=12;fontColor=default;entryX=1;entryY=1;entryDx=0;entryDy=0;" parent="1" target="qExTj2zVySwOXJWGo6M_-203" edge="1">
          <mxGeometry width="50" height="50" relative="1" as="geometry">
            <mxPoint x="490" y="260" as="sourcePoint" />
            <mxPoint x="430" y="210" as="targetPoint" />
          </mxGeometry>
        </mxCell>
        <mxCell id="qExTj2zVySwOXJWGo6M_-257" value="" style="endArrow=none;html=1;rounded=0;fontFamily=Helvetica;fontSize=12;fontColor=default;exitX=0.5;exitY=0;exitDx=0;exitDy=0;" parent="1" source="qExTj2zVySwOXJWGo6M_-239" edge="1">
          <mxGeometry width="50" height="50" relative="1" as="geometry">
            <mxPoint x="380" y="260" as="sourcePoint" />
            <mxPoint x="520" y="180" as="targetPoint" />
          </mxGeometry>
        </mxCell>
        <mxCell id="qExTj2zVySwOXJWGo6M_-258" value="" style="endArrow=none;html=1;rounded=0;fontFamily=Helvetica;fontSize=12;fontColor=default;entryX=0.338;entryY=1.01;entryDx=0;entryDy=0;entryPerimeter=0;exitX=0.5;exitY=0;exitDx=0;exitDy=0;" parent="1" source="qExTj2zVySwOXJWGo6M_-243" target="qExTj2zVySwOXJWGo6M_-207" edge="1">
          <mxGeometry width="50" height="50" relative="1" as="geometry">
            <mxPoint x="380" y="260" as="sourcePoint" />
            <mxPoint x="430" y="210" as="targetPoint" />
          </mxGeometry>
        </mxCell>
        <mxCell id="qExTj2zVySwOXJWGo6M_-259" value="" style="endArrow=none;html=1;rounded=0;fontFamily=Helvetica;fontSize=12;fontColor=default;entryX=0.654;entryY=1.035;entryDx=0;entryDy=0;entryPerimeter=0;exitX=0.5;exitY=0;exitDx=0;exitDy=0;" parent="1" source="qExTj2zVySwOXJWGo6M_-247" target="qExTj2zVySwOXJWGo6M_-207" edge="1">
          <mxGeometry width="50" height="50" relative="1" as="geometry">
            <mxPoint x="380" y="260" as="sourcePoint" />
            <mxPoint x="430" y="210" as="targetPoint" />
          </mxGeometry>
        </mxCell>
        <mxCell id="qExTj2zVySwOXJWGo6M_-260" value="" style="endArrow=none;html=1;rounded=0;fontFamily=Helvetica;fontSize=12;fontColor=default;entryX=0;entryY=1;entryDx=0;entryDy=0;" parent="1" target="qExTj2zVySwOXJWGo6M_-195" edge="1">
          <mxGeometry width="50" height="50" relative="1" as="geometry">
            <mxPoint x="240" y="140" as="sourcePoint" />
            <mxPoint x="430" y="210" as="targetPoint" />
          </mxGeometry>
        </mxCell>
        <mxCell id="qExTj2zVySwOXJWGo6M_-261" value="" style="endArrow=none;html=1;rounded=0;fontFamily=Helvetica;fontSize=12;fontColor=default;entryX=0.5;entryY=1;entryDx=0;entryDy=0;" parent="1" target="qExTj2zVySwOXJWGo6M_-195" edge="1">
          <mxGeometry width="50" height="50" relative="1" as="geometry">
            <mxPoint x="400" y="140" as="sourcePoint" />
            <mxPoint x="430" y="210" as="targetPoint" />
          </mxGeometry>
        </mxCell>
        <mxCell id="qExTj2zVySwOXJWGo6M_-262" value="" style="endArrow=none;html=1;rounded=0;fontFamily=Helvetica;fontSize=12;fontColor=default;entryX=1;entryY=1;entryDx=0;entryDy=0;" parent="1" target="qExTj2zVySwOXJWGo6M_-195" edge="1">
          <mxGeometry width="50" height="50" relative="1" as="geometry">
            <mxPoint x="580" y="140" as="sourcePoint" />
            <mxPoint x="411" y="90" as="targetPoint" />
          </mxGeometry>
        </mxCell>
        <mxCell id="qExTj2zVySwOXJWGo6M_-263" value="" style="rounded=0;whiteSpace=wrap;html=1;strokeColor=default;align=center;verticalAlign=middle;fontFamily=Helvetica;fontSize=12;fontColor=default;fillColor=default;" parent="1" vertex="1">
          <mxGeometry x="810" y="260" width="80" height="40" as="geometry" />
        </mxCell>
        <mxCell id="qExTj2zVySwOXJWGo6M_-264" value="" style="endArrow=none;html=1;rounded=0;fontFamily=Helvetica;fontSize=12;fontColor=default;entryX=0.5;entryY=0;entryDx=0;entryDy=0;exitX=0.5;exitY=1;exitDx=0;exitDy=0;" parent="1" source="qExTj2zVySwOXJWGo6M_-263" target="qExTj2zVySwOXJWGo6M_-263" edge="1">
          <mxGeometry width="50" height="50" relative="1" as="geometry">
            <mxPoint x="710" y="510" as="sourcePoint" />
            <mxPoint x="760" y="460" as="targetPoint" />
          </mxGeometry>
        </mxCell>
        <mxCell id="qExTj2zVySwOXJWGo6M_-265" value="19" style="text;html=1;strokeColor=none;fillColor=none;align=center;verticalAlign=middle;whiteSpace=wrap;rounded=0;fontSize=14;fontFamily=Helvetica;fontColor=default;" parent="1" vertex="1">
          <mxGeometry x="810" y="265" width="39" height="30" as="geometry" />
        </mxCell>
        <mxCell id="qExTj2zVySwOXJWGo6M_-266" value="20" style="text;html=1;strokeColor=none;fillColor=none;align=center;verticalAlign=middle;whiteSpace=wrap;rounded=0;fontSize=14;fontFamily=Helvetica;fontColor=default;" parent="1" vertex="1">
          <mxGeometry x="851" y="265" width="39" height="30" as="geometry" />
        </mxCell>
        <mxCell id="qExTj2zVySwOXJWGo6M_-267" value="" style="endArrow=none;html=1;rounded=0;fontFamily=Helvetica;fontSize=12;fontColor=default;entryX=1;entryY=1;entryDx=0;entryDy=0;" parent="1" target="qExTj2zVySwOXJWGo6M_-207" edge="1">
          <mxGeometry width="50" height="50" relative="1" as="geometry">
            <mxPoint x="850" y="260" as="sourcePoint" />
            <mxPoint x="420" y="270" as="targetPoint" />
          </mxGeometry>
        </mxCell>
        <mxCell id="qExTj2zVySwOXJWGo6M_-268" value="" style="endArrow=none;html=1;rounded=0;fontFamily=Helvetica;fontSize=12;fontColor=default;exitX=1;exitY=0.5;exitDx=0;exitDy=0;" parent="1" target="qExTj2zVySwOXJWGo6M_-219" edge="1">
          <mxGeometry width="50" height="50" relative="1" as="geometry">
            <mxPoint x="79.99999999999997" y="280" as="sourcePoint" />
            <mxPoint x="90" y="280" as="targetPoint" />
          </mxGeometry>
        </mxCell>
        <mxCell id="qExTj2zVySwOXJWGo6M_-270" value="" style="endArrow=none;html=1;rounded=0;fontFamily=Helvetica;fontSize=12;fontColor=default;exitX=1;exitY=0.5;exitDx=0;exitDy=0;entryX=0;entryY=0.5;entryDx=0;entryDy=0;" parent="1" target="qExTj2zVySwOXJWGo6M_-223" edge="1">
          <mxGeometry width="50" height="50" relative="1" as="geometry">
            <mxPoint x="168.99999999999997" y="279.92" as="sourcePoint" />
            <mxPoint x="178" y="279.92" as="targetPoint" />
          </mxGeometry>
        </mxCell>
        <mxCell id="qExTj2zVySwOXJWGo6M_-272" value="" style="endArrow=none;html=1;rounded=0;fontFamily=Helvetica;fontSize=12;fontColor=default;exitX=1;exitY=0.5;exitDx=0;exitDy=0;" parent="1" edge="1">
          <mxGeometry width="50" height="50" relative="1" as="geometry">
            <mxPoint x="260" y="279.92" as="sourcePoint" />
            <mxPoint x="270" y="280" as="targetPoint" />
          </mxGeometry>
        </mxCell>
        <mxCell id="qExTj2zVySwOXJWGo6M_-274" value="" style="endArrow=none;html=1;rounded=0;fontFamily=Helvetica;fontSize=12;fontColor=default;exitX=1;exitY=0.5;exitDx=0;exitDy=0;" parent="1" edge="1">
          <mxGeometry width="50" height="50" relative="1" as="geometry">
            <mxPoint x="350" y="279.92" as="sourcePoint" />
            <mxPoint x="360" y="280" as="targetPoint" />
          </mxGeometry>
        </mxCell>
        <mxCell id="qExTj2zVySwOXJWGo6M_-275" value="" style="endArrow=none;html=1;rounded=0;fontFamily=Helvetica;fontSize=12;fontColor=default;exitX=1;exitY=0.5;exitDx=0;exitDy=0;entryX=0;entryY=0.5;entryDx=0;entryDy=0;" parent="1" target="qExTj2zVySwOXJWGo6M_-236" edge="1">
          <mxGeometry width="50" height="50" relative="1" as="geometry">
            <mxPoint x="440" y="279.92" as="sourcePoint" />
            <mxPoint x="450" y="280" as="targetPoint" />
          </mxGeometry>
        </mxCell>
        <mxCell id="qExTj2zVySwOXJWGo6M_-277" value="" style="endArrow=none;html=1;rounded=0;fontFamily=Helvetica;fontSize=12;fontColor=default;exitX=1;exitY=0.5;exitDx=0;exitDy=0;entryX=0;entryY=0.5;entryDx=0;entryDy=0;" parent="1" target="qExTj2zVySwOXJWGo6M_-241" edge="1">
          <mxGeometry width="50" height="50" relative="1" as="geometry">
            <mxPoint x="529" y="279.92" as="sourcePoint" />
            <mxPoint x="538" y="280" as="targetPoint" />
          </mxGeometry>
        </mxCell>
        <mxCell id="qExTj2zVySwOXJWGo6M_-278" value="" style="endArrow=none;html=1;rounded=0;fontFamily=Helvetica;fontSize=12;fontColor=default;exitX=1;exitY=0.5;exitDx=0;exitDy=0;entryX=0;entryY=0.5;entryDx=0;entryDy=0;" parent="1" edge="1">
          <mxGeometry width="50" height="50" relative="1" as="geometry">
            <mxPoint x="619" y="279.92" as="sourcePoint" />
            <mxPoint x="629" y="280" as="targetPoint" />
          </mxGeometry>
        </mxCell>
        <mxCell id="qExTj2zVySwOXJWGo6M_-279" value="" style="endArrow=none;html=1;rounded=0;fontFamily=Helvetica;fontSize=12;fontColor=default;exitX=1;exitY=0.5;exitDx=0;exitDy=0;entryX=0;entryY=0.5;entryDx=0;entryDy=0;" parent="1" edge="1">
          <mxGeometry width="50" height="50" relative="1" as="geometry">
            <mxPoint x="709" y="279.92" as="sourcePoint" />
            <mxPoint x="719" y="280" as="targetPoint" />
          </mxGeometry>
        </mxCell>
        <mxCell id="qExTj2zVySwOXJWGo6M_-280" value="" style="endArrow=none;html=1;rounded=0;fontFamily=Helvetica;fontSize=12;fontColor=default;exitX=1;exitY=0.5;exitDx=0;exitDy=0;entryX=0;entryY=0.5;entryDx=0;entryDy=0;" parent="1" target="qExTj2zVySwOXJWGo6M_-265" edge="1">
          <mxGeometry width="50" height="50" relative="1" as="geometry">
            <mxPoint x="799" y="279.92" as="sourcePoint" />
            <mxPoint x="809" y="280" as="targetPoint" />
          </mxGeometry>
        </mxCell>
        <mxCell id="bgvol3_OqY5FeR9LOVzj-68" value="Visibility map" style="shape=table;startSize=30;container=1;collapsible=0;childLayout=tableLayout;fixedRows=1;rowLines=0;fontStyle=0;strokeColor=default;fontSize=16;" vertex="1" parent="1">
          <mxGeometry x="710" y="330" width="180" height="120" as="geometry" />
        </mxCell>
        <mxCell id="bgvol3_OqY5FeR9LOVzj-69" value="" style="shape=tableRow;horizontal=0;startSize=0;swimlaneHead=0;swimlaneBody=0;top=0;left=0;bottom=0;right=0;collapsible=0;dropTarget=0;fillColor=none;points=[[0,0.5],[1,0.5]];portConstraint=eastwest;strokeColor=inherit;fontSize=16;" vertex="1" parent="bgvol3_OqY5FeR9LOVzj-68">
          <mxGeometry y="30" width="180" height="30" as="geometry" />
        </mxCell>
        <mxCell id="bgvol3_OqY5FeR9LOVzj-70" value="9" style="shape=partialRectangle;html=1;whiteSpace=wrap;connectable=0;fillColor=none;top=0;left=0;bottom=0;right=0;overflow=hidden;pointerEvents=1;strokeColor=inherit;fontSize=16;" vertex="1" parent="bgvol3_OqY5FeR9LOVzj-69">
          <mxGeometry width="40" height="30" as="geometry">
            <mxRectangle width="40" height="30" as="alternateBounds" />
          </mxGeometry>
        </mxCell>
        <mxCell id="bgvol3_OqY5FeR9LOVzj-71" value="visible" style="shape=partialRectangle;html=1;whiteSpace=wrap;connectable=0;fillColor=none;top=0;left=0;bottom=0;right=0;align=left;spacingLeft=6;overflow=hidden;strokeColor=inherit;fontSize=16;" vertex="1" parent="bgvol3_OqY5FeR9LOVzj-69">
          <mxGeometry x="40" width="140" height="30" as="geometry">
            <mxRectangle width="140" height="30" as="alternateBounds" />
          </mxGeometry>
        </mxCell>
        <mxCell id="bgvol3_OqY5FeR9LOVzj-72" value="" style="shape=tableRow;horizontal=0;startSize=0;swimlaneHead=0;swimlaneBody=0;top=0;left=0;bottom=0;right=0;collapsible=0;dropTarget=0;fillColor=none;points=[[0,0.5],[1,0.5]];portConstraint=eastwest;strokeColor=inherit;fontSize=16;" vertex="1" parent="bgvol3_OqY5FeR9LOVzj-68">
          <mxGeometry y="60" width="180" height="30" as="geometry" />
        </mxCell>
        <mxCell id="bgvol3_OqY5FeR9LOVzj-73" value="..." style="shape=partialRectangle;html=1;whiteSpace=wrap;connectable=0;fillColor=none;top=0;left=0;bottom=0;right=0;overflow=hidden;strokeColor=inherit;fontSize=16;" vertex="1" parent="bgvol3_OqY5FeR9LOVzj-72">
          <mxGeometry width="40" height="30" as="geometry">
            <mxRectangle width="40" height="30" as="alternateBounds" />
          </mxGeometry>
        </mxCell>
        <mxCell id="bgvol3_OqY5FeR9LOVzj-74" value="...." style="shape=partialRectangle;html=1;whiteSpace=wrap;connectable=0;fillColor=none;top=0;left=0;bottom=0;right=0;align=left;spacingLeft=6;overflow=hidden;strokeColor=inherit;fontSize=16;" vertex="1" parent="bgvol3_OqY5FeR9LOVzj-72">
          <mxGeometry x="40" width="140" height="30" as="geometry">
            <mxRectangle width="140" height="30" as="alternateBounds" />
          </mxGeometry>
        </mxCell>
        <mxCell id="bgvol3_OqY5FeR9LOVzj-75" value="" style="shape=tableRow;horizontal=0;startSize=0;swimlaneHead=0;swimlaneBody=0;top=0;left=0;bottom=0;right=0;collapsible=0;dropTarget=0;fillColor=none;points=[[0,0.5],[1,0.5]];portConstraint=eastwest;strokeColor=inherit;fontSize=16;" vertex="1" parent="bgvol3_OqY5FeR9LOVzj-68">
          <mxGeometry y="90" width="180" height="30" as="geometry" />
        </mxCell>
        <mxCell id="bgvol3_OqY5FeR9LOVzj-76" value="11" style="shape=partialRectangle;html=1;whiteSpace=wrap;connectable=0;fillColor=none;top=0;left=0;bottom=0;right=0;overflow=hidden;strokeColor=inherit;fontSize=16;" vertex="1" parent="bgvol3_OqY5FeR9LOVzj-75">
          <mxGeometry width="40" height="30" as="geometry">
            <mxRectangle width="40" height="30" as="alternateBounds" />
          </mxGeometry>
        </mxCell>
        <mxCell id="bgvol3_OqY5FeR9LOVzj-77" value="visible" style="shape=partialRectangle;html=1;whiteSpace=wrap;connectable=0;fillColor=none;top=0;left=0;bottom=0;right=0;align=left;spacingLeft=6;overflow=hidden;strokeColor=inherit;fontSize=16;" vertex="1" parent="bgvol3_OqY5FeR9LOVzj-75">
          <mxGeometry x="40" width="140" height="30" as="geometry">
            <mxRectangle width="140" height="30" as="alternateBounds" />
          </mxGeometry>
        </mxCell>
        <mxCell id="bgvol3_OqY5FeR9LOVzj-78" value="" style="endArrow=none;dashed=1;html=1;dashPattern=1 3;strokeWidth=2;rounded=0;exitX=0;exitY=0.5;exitDx=0;exitDy=0;strokeColor=#00CC00;" edge="1" parent="1" source="bgvol3_OqY5FeR9LOVzj-69">
          <mxGeometry width="50" height="50" relative="1" as="geometry">
            <mxPoint x="460" y="410" as="sourcePoint" />
            <mxPoint x="380" y="300" as="targetPoint" />
          </mxGeometry>
        </mxCell>
        <mxCell id="bgvol3_OqY5FeR9LOVzj-80" value="" style="endArrow=none;dashed=1;html=1;dashPattern=1 3;strokeWidth=2;rounded=0;entryX=0.25;entryY=1;entryDx=0;entryDy=0;exitX=0;exitY=0.5;exitDx=0;exitDy=0;strokeColor=#FF0000;" edge="1" parent="1" source="bgvol3_OqY5FeR9LOVzj-75" target="qExTj2zVySwOXJWGo6M_-234">
          <mxGeometry width="50" height="50" relative="1" as="geometry">
            <mxPoint x="460" y="410" as="sourcePoint" />
            <mxPoint x="510" y="360" as="targetPoint" />
          </mxGeometry>
        </mxCell>
        <mxCell id="bgvol3_OqY5FeR9LOVzj-82" value="" style="endArrow=none;dashed=1;html=1;dashPattern=1 3;strokeWidth=2;rounded=0;exitX=0.556;exitY=-0.111;exitDx=0;exitDy=0;exitPerimeter=0;strokeColor=#6666FF;" edge="1" parent="1" source="qExTj2zVySwOXJWGo6M_-105">
          <mxGeometry width="50" height="50" relative="1" as="geometry">
            <mxPoint x="320" y="440" as="sourcePoint" />
            <mxPoint x="421" y="300" as="targetPoint" />
          </mxGeometry>
        </mxCell>
        <mxCell id="bgvol3_OqY5FeR9LOVzj-83" value="" style="endArrow=none;dashed=1;html=1;dashPattern=1 3;strokeWidth=2;rounded=0;entryX=0.75;entryY=1;entryDx=0;entryDy=0;exitX=0.419;exitY=-0.111;exitDx=0;exitDy=0;exitPerimeter=0;strokeColor=#FF00FF;" edge="1" parent="1" source="qExTj2zVySwOXJWGo6M_-106" target="qExTj2zVySwOXJWGo6M_-234">
          <mxGeometry width="50" height="50" relative="1" as="geometry">
            <mxPoint x="460" y="410" as="sourcePoint" />
            <mxPoint x="510" y="360" as="targetPoint" />
          </mxGeometry>
        </mxCell>
      </root>
    </mxGraphModel>
  </diagram>
</mxfile>
